<svg xmlns="http://www.w3.org/2000/svg" width="1200" height="630" viewBox="0 0 1200 630">
  <rect width="1200" height="630" fill="#f4f7f2"/>
  <circle cx="1040" cy="90" r="290" fill="#dfeee1"/>
  <circle cx="1150" cy="590" r="360" fill="#eaf2e7"/>
  <path d="M765 145c115-58 230-19 300 78-110 29-225 18-300-78Z" fill="#317c4b" opacity=".16"/>
  <g transform="translate(92 85)">
    <rect width="82" height="82" rx="24" fill="#317c4b"/>
    <path d="M23 49c4-22 21-30 42-31-2 23-11 39-32 40-7 0-11-4-10-9Z" fill="none" stroke="#fff" stroke-width="5" stroke-linecap="round"/>
    <path d="M29 53c7-11 15-19 29-27" fill="none" stroke="#fff" stroke-width="4" stroke-linecap="round"/>
  </g>
  <text x="196" y="143" font-family="Arial, sans-serif" font-size="45" font-weight="700" fill="#18241b">Эко карта</text>
  <text x="92" y="300" font-family="Georgia, serif" font-size="86" fill="#18241b">Замечай.</text>
  <text x="92" y="390" font-family="Georgia, serif" font-size="86" font-style="italic" fill="#317c4b">Отмечай.</text>
  <text x="92" y="480" font-family="Georgia, serif" font-size="86" fill="#18241b">Меняй.</text>
  <text x="98" y="550" font-family="Arial, sans-serif" font-size="28" fill="#68746b">Интерактивная карта загрязнений</text>
</svg>
